<svg width="564" height="147" viewBox="0 0 564 147" fill="none" xmlns="http://www.w3.org/2000/svg">
<g clip-path="url(#clip0_1348_5168)">
<path d="M15.0204 32.7515L14.3149 28.4591C14.3149 28.3415 14.1974 28.2239 14.021 28.2239H8.31869C8.14232 28.2239 8.02475 28.2827 8.02475 28.4591L7.31931 32.7515C7.31931 33.1043 7.08417 33.2219 6.73144 33.2219H1.55822C1.14671 33.2219 1.02914 33.0455 1.08792 32.6339L7.67203 2.46955C7.73082 2.11675 7.90718 1.99915 8.2599 1.99915H14.3149C14.6676 1.99915 14.844 2.17555 14.9028 2.46955L21.4281 32.6927L21.4869 32.8691C21.4869 33.1631 21.3105 33.2807 21.0166 33.2807H15.667C15.2555 33.2807 15.0792 33.1043 15.0204 32.7515ZM9.1417 23.4023H13.1392C13.2568 23.4023 13.3156 23.3435 13.3156 23.1671L11.1992 10.9955C11.1992 10.9367 11.1404 10.8779 11.0817 10.8779C11.0229 10.8779 10.9641 10.9367 10.9641 10.9955L8.96534 23.1671C8.96534 23.3435 9.02413 23.4023 9.1417 23.4023Z" fill="#041E42"/>
<path d="M38.9465 1.99915H44.1197C44.2373 1.99915 44.4137 2.05795 44.5312 2.17555C44.6488 2.29315 44.7076 2.41075 44.7076 2.52835V32.7515C44.7076 32.8691 44.6488 33.0455 44.5312 33.1631C44.4137 33.2807 44.2961 33.3395 44.1197 33.3395H38.8877C38.7701 33.3395 38.5938 33.2807 38.4762 33.1631C38.3586 33.0455 38.2999 32.9279 38.2999 32.7515V12.6419C38.2999 12.5243 38.2411 12.4655 38.1823 12.4655C38.1235 12.4655 38.0647 12.5243 38.0059 12.5831L34.6551 18.8159C34.5375 19.0511 34.3611 19.1687 34.3024 19.1687C34.2436 19.1687 34.0672 19.0511 33.9496 18.8159L30.4812 12.6419C30.4224 12.5243 30.3636 12.5243 30.3049 12.5243C30.2461 12.5243 30.1873 12.5831 30.1873 12.7007V32.7515C30.1873 32.8691 30.1285 33.0455 30.0109 33.1631C29.8934 33.2807 29.7758 33.3395 29.5994 33.3395H24.3674C24.2498 33.3395 24.0735 33.2807 23.9559 33.1631C23.8383 33.0455 23.7795 32.9279 23.7795 32.7515V2.52835C23.7795 2.41075 23.8383 2.23435 23.9559 2.17555C24.0735 2.11675 24.191 1.99915 24.3674 1.99915H29.4818C29.7758 1.99915 30.0109 2.11675 30.1285 2.35195L34.126 9.46675C34.2436 9.58435 34.3024 9.58435 34.4199 9.46675L38.2999 2.35195C38.4174 2.11675 38.6526 1.99915 38.9465 1.99915Z" fill="#041E42"/>
<path d="M64.695 7.23235C64.5775 7.34995 64.4599 7.40875 64.2835 7.40875H54.9952C54.8777 7.40875 54.7601 7.46755 54.7601 7.64395V14.6999C54.7601 14.8175 54.8189 14.9351 54.9952 14.9351H60.3448C60.4624 14.9351 60.6388 14.9939 60.7563 15.1115C60.8739 15.2291 60.9327 15.3467 60.9327 15.5231V19.8743C60.9327 19.9919 60.8739 20.1683 60.7563 20.2859C60.6388 20.4035 60.5212 20.4623 60.3448 20.4623H54.9952C54.8777 20.4623 54.7601 20.5211 54.7601 20.6975V27.6359C54.7601 27.7535 54.8189 27.8711 54.9952 27.8711H64.3423C64.4599 27.8711 64.6363 27.9299 64.7538 28.0475C64.8714 28.1651 64.9302 28.2827 64.9302 28.4591V32.8103C64.9302 32.9279 64.8714 33.1043 64.7538 33.2219C64.6363 33.3395 64.5187 33.3983 64.3423 33.3983H48.999C48.8814 33.3983 48.7051 33.3395 48.5875 33.2219C48.4699 33.1043 48.4111 32.9867 48.4111 32.8103V2.52835C48.4111 2.41075 48.4699 2.23435 48.5875 2.17555C48.7051 2.11675 48.8226 1.99915 48.999 1.99915H64.3423C64.4599 1.99915 64.6363 2.05795 64.7538 2.17555C64.8714 2.29315 64.9302 2.41075 64.9302 2.52835V6.87955C64.8714 6.99715 64.8126 7.11475 64.695 7.23235Z" fill="#041E42"/>
<path d="M79.7444 32.8103L76.276 20.4623C76.2172 20.3447 76.1584 20.2859 76.0408 20.2859H74.5712C74.4536 20.2859 74.336 20.3447 74.336 20.5211V32.7515C74.336 32.8691 74.2772 33.0455 74.1597 33.1631C74.0421 33.2807 73.9245 33.3395 73.8069 33.3395H68.5749C68.4574 33.3395 68.281 33.2807 68.1634 33.1631C68.0458 33.0455 67.9871 32.9279 67.9871 32.7515V2.52835C67.9871 2.41075 68.0458 2.23435 68.1634 2.17555C68.281 2.11675 68.3986 1.99915 68.5749 1.99915H77.6281C79.2741 1.99915 80.7438 2.41075 81.9783 3.17515C83.2128 3.93955 84.271 5.05675 84.9764 6.52675C85.6818 7.99675 86.0346 9.58435 86.0346 11.4659C86.0346 13.2299 85.6818 14.7587 85.0352 16.1111C84.3885 17.4635 83.448 18.4631 82.2134 19.2275C82.1546 19.2275 82.0959 19.2863 82.0959 19.3451C82.0371 19.4039 82.0371 19.4627 82.0959 19.5215L86.2109 32.6927L86.2697 32.8691C86.2697 33.1631 86.0934 33.3395 85.7994 33.3395H80.4498C80.0383 33.2807 79.862 33.1043 79.7444 32.8103ZM74.336 7.64395V15.2879C74.336 15.4055 74.3948 15.5231 74.5712 15.5231H76.5699C77.5105 15.5231 78.2747 15.1703 78.8038 14.4059C79.3917 13.7003 79.6856 12.7007 79.6856 11.4659C79.6856 10.2311 79.3917 9.23155 78.8038 8.52595C78.2159 7.82035 77.4517 7.40875 76.5699 7.40875H74.5712C74.4536 7.40875 74.336 7.46755 74.336 7.64395Z" fill="#041E42"/>
<path d="M89.2679 33.1043C89.1503 32.9867 89.0916 32.8691 89.0916 32.6927V2.52835C89.0916 2.41075 89.1503 2.23435 89.2679 2.17555C89.3855 2.05795 89.5031 1.99915 89.6206 1.99915H94.8526C94.9702 1.99915 95.1466 2.05795 95.2054 2.17555C95.2642 2.29315 95.3817 2.41075 95.3817 2.52835V32.7515C95.3817 32.8691 95.3229 33.0455 95.2054 33.1631C95.0878 33.2807 94.9702 33.3395 94.8526 33.3395H89.6206C89.5031 33.2807 89.3267 33.2219 89.2679 33.1043Z" fill="#041E42"/>
<path d="M101.378 31.2228C99.732 29.6352 98.9678 27.5184 98.9678 24.8136V10.3488C98.9678 7.70276 99.7908 5.58596 101.378 3.99836C103.024 2.41076 105.14 1.64636 107.845 1.64636C110.549 1.64636 112.724 2.41076 114.37 3.99836C116.016 5.58596 116.78 7.70276 116.78 10.3488V10.8192C116.78 10.9368 116.721 11.1132 116.604 11.2308C116.486 11.3484 116.369 11.4072 116.251 11.4072L111.019 11.6424C110.666 11.6424 110.49 11.466 110.49 11.172V9.99596C110.49 9.11396 110.255 8.40836 109.785 7.87916C109.314 7.34996 108.668 7.05596 107.845 7.05596C107.08 7.05596 106.434 7.34996 105.963 7.87916C105.493 8.40836 105.258 9.11396 105.258 9.99596V25.4016C105.258 26.2836 105.493 26.9892 105.963 27.4596C106.434 27.9888 107.08 28.224 107.845 28.224C108.668 28.224 109.314 27.9888 109.785 27.4596C110.255 26.9304 110.49 26.2248 110.49 25.4016V24.2256C110.49 24.108 110.549 23.9316 110.666 23.814C110.784 23.6964 110.901 23.6376 111.019 23.6376L116.251 23.8728C116.369 23.8728 116.545 23.9316 116.604 24.0492C116.663 24.1668 116.78 24.2844 116.78 24.4608V24.9312C116.78 27.636 115.957 29.7528 114.311 31.3404C112.665 32.928 110.49 33.7512 107.845 33.7512C105.199 33.7512 102.965 32.8104 101.378 31.2228Z" fill="#041E42"/>
<path d="M132.182 32.7515L131.477 28.4591C131.477 28.3415 131.418 28.2239 131.183 28.2239H125.539C125.363 28.2239 125.245 28.2827 125.245 28.4591L124.54 32.7515C124.481 33.1043 124.305 33.2219 123.952 33.2219H118.72C118.309 33.2219 118.191 33.0455 118.25 32.6339L124.834 2.41071C124.893 2.05791 125.069 1.94031 125.422 1.94031H131.477C131.83 1.94031 132.006 2.11671 132.065 2.41071L138.59 32.6339L138.649 32.8103C138.649 33.1043 138.472 33.2219 138.178 33.2219H132.77C132.417 33.2807 132.241 33.1043 132.182 32.7515ZM126.362 23.4023H130.36C130.477 23.4023 130.595 23.3435 130.536 23.1671L128.42 10.9955C128.361 10.9367 128.361 10.8779 128.302 10.8779C128.244 10.8779 128.185 10.9367 128.185 10.9955L126.186 23.1671C126.186 23.3435 126.245 23.4023 126.362 23.4023Z" fill="#041E42"/>
<path d="M154.11 2.17555C154.227 2.05795 154.345 1.99915 154.462 1.99915H159.636C159.753 1.99915 159.929 2.05795 159.988 2.17555C160.047 2.29315 160.165 2.41075 160.165 2.52835V32.7515C160.165 32.8691 160.106 33.0455 159.988 33.1631C159.871 33.2807 159.753 33.3395 159.636 33.3395H153.757C153.463 33.3395 153.287 33.2219 153.169 32.8691L147.643 15.5819C147.643 15.4643 147.584 15.4643 147.467 15.4643C147.408 15.4643 147.349 15.5231 147.349 15.6407L147.408 32.8103C147.408 32.9279 147.349 33.1043 147.232 33.2219C147.114 33.3395 146.996 33.3983 146.879 33.3983H141.706C141.588 33.3983 141.412 33.3395 141.353 33.2219C141.294 33.1043 141.177 32.9867 141.177 32.8103V2.52835C141.177 2.41075 141.235 2.23435 141.353 2.17555C141.47 2.05795 141.588 1.99915 141.706 1.99915H147.584C147.878 1.99915 148.055 2.11675 148.172 2.46955L153.757 19.7567C153.757 19.8743 153.816 19.8743 153.933 19.8743C153.992 19.8743 154.051 19.8155 154.051 19.6979L153.992 2.52835C153.992 2.35195 153.992 2.23435 154.11 2.17555Z" fill="#041E42"/>
<path d="M15.0203 43.8648C16.3136 44.688 17.313 45.8052 17.9597 47.2164C18.6063 48.6276 19.0178 50.3328 19.0178 52.1556C19.0178 54.9192 18.2536 57.1536 16.7839 58.8C15.3143 60.4464 13.3743 61.3284 10.9053 61.3284H7.55442C7.43685 61.3284 7.31928 61.3872 7.31928 61.5636V73.4412C7.31928 73.5588 7.26049 73.7352 7.14292 73.794C7.02534 73.8528 6.90777 73.9704 6.7902 73.9704H1.61697C1.4994 73.9704 1.32304 73.9116 1.26425 73.794C1.14668 73.6764 1.08789 73.5588 1.08789 73.4412V43.1592C1.08789 43.0416 1.14668 42.8652 1.26425 42.7476C1.38182 42.63 1.4994 42.5712 1.61697 42.5712H10.6701C12.3161 42.63 13.7858 43.0416 15.0203 43.8648ZM11.9046 55.3308C12.4925 54.6252 12.7864 53.6256 12.7864 52.332C12.7864 51.0384 12.4925 49.98 11.9046 49.2744C11.3168 48.51 10.5525 48.1572 9.61196 48.1572H7.672C7.55442 48.1572 7.43685 48.216 7.43685 48.3924V56.2716C7.43685 56.3892 7.49564 56.5068 7.672 56.5068H9.61196C10.5525 56.3892 11.3168 56.0364 11.9046 55.3308Z" fill="#041E42"/>
<path d="M24.191 71.7947C22.545 70.0895 21.7808 67.8551 21.7808 65.0915V43.2179C21.7808 43.1003 21.8395 42.9239 21.9571 42.8063C22.0747 42.6887 22.1923 42.6299 22.3686 42.6299H27.5419C27.6594 42.6299 27.8358 42.6887 27.9534 42.8063C28.0709 42.9239 28.1297 43.0415 28.1297 43.2179V65.6795C28.1297 66.6203 28.3649 67.3847 28.8352 67.9727C29.3055 68.5607 29.9521 68.8547 30.7163 68.8547C31.4806 68.8547 32.1272 68.5607 32.5975 67.9727C33.0678 67.3847 33.3029 66.6203 33.3029 65.6795V43.2179C33.3029 43.1003 33.3617 42.9239 33.4793 42.8063C33.5969 42.6887 33.7145 42.6299 33.8908 42.6299H39.1228C39.2404 42.6299 39.4168 42.6887 39.5343 42.8063C39.6519 42.9239 39.7107 43.0415 39.7107 43.2179V65.0915C39.7107 67.9139 38.8877 70.1483 37.3004 71.7947C35.6544 73.4999 33.5381 74.3231 30.8927 74.3231C28.0121 74.3231 25.837 73.4999 24.191 71.7947Z" fill="#041E42"/>
<path d="M58.5224 71.7359C56.8763 73.2059 54.7012 73.9703 52.0558 73.9703H43.5906C43.473 73.9703 43.2966 73.9115 43.179 73.7939C43.0615 73.6763 43.0027 73.5587 43.0027 73.4411V43.2179C43.0027 43.1003 43.0615 42.9239 43.179 42.8063C43.2966 42.6887 43.4142 42.6299 43.5906 42.6299H51.0565C54.0546 42.6299 56.3473 43.3355 58.0521 44.8055C59.7569 46.2755 60.5799 48.3923 60.5799 51.2147C60.5799 54.1547 59.5805 56.3303 57.523 57.6239C57.4054 57.7415 57.4054 57.8003 57.4642 57.9179C59.8157 59.5643 60.9914 62.0339 60.9914 65.3267C60.9914 68.0903 60.1684 70.2659 58.5224 71.7359ZM49.3516 48.3335V55.3307C49.3516 55.4483 49.4104 55.5659 49.5868 55.5659H51.174C52.1734 55.5659 52.9964 55.2719 53.5255 54.6251C54.1134 53.9783 54.3485 53.0963 54.3485 51.9203C54.3485 50.6855 54.0546 49.7447 53.5255 49.0979C52.9964 48.4511 52.1734 48.0983 51.1152 48.0983H49.528C49.4104 48.0983 49.3516 48.1571 49.3516 48.3335ZM53.8782 67.4435C54.4661 66.7379 54.7012 65.7383 54.7012 64.3859C54.7012 63.0923 54.4073 62.0339 53.8782 61.2695C53.3491 60.5051 52.5849 60.0935 51.5855 60.0935H49.5868C49.4692 60.0935 49.3516 60.1523 49.3516 60.3287V68.2667C49.3516 68.3843 49.4104 68.5019 49.5868 68.5019H51.5268C52.5261 68.5019 53.2904 68.1491 53.8782 67.4435Z" fill="#041E42"/>
<path d="M64.2247 73.7939C64.1071 73.6763 64.0483 73.5587 64.0483 73.4411V43.2179C64.0483 43.1003 64.1071 42.9239 64.2247 42.8063C64.3423 42.6887 64.4598 42.6299 64.6362 42.6299H69.8682C69.9858 42.6299 70.1622 42.6887 70.2209 42.8063C70.2797 42.9239 70.3973 43.0415 70.3973 43.2179V68.3255C70.3973 68.4431 70.4561 68.5607 70.6324 68.5607H80.0383C80.1559 68.5607 80.3322 68.6195 80.391 68.7371C80.5086 68.8547 80.5674 68.9723 80.5674 69.0899V73.4411C80.5674 73.5587 80.5086 73.7351 80.391 73.7939C80.2735 73.9115 80.1559 73.9703 80.0383 73.9703H64.5774C64.4598 73.9703 64.2835 73.9115 64.2247 73.7939Z" fill="#041E42"/>
<path d="M83.2716 73.7939C83.154 73.6763 83.0952 73.5587 83.0952 73.4411V43.2179C83.0952 43.1003 83.154 42.9239 83.2716 42.8063C83.3892 42.6887 83.5067 42.6299 83.6243 42.6299H88.8563C88.9739 42.6299 89.1502 42.6887 89.209 42.8063C89.2678 42.9239 89.3854 43.0415 89.3854 43.2179V73.4411C89.3854 73.5587 89.3266 73.7351 89.209 73.7939C89.0915 73.9115 88.9739 73.9703 88.8563 73.9703H83.6243C83.4479 73.9703 83.3304 73.9115 83.2716 73.7939Z" fill="#041E42"/>
<path d="M95.3229 71.9123C93.6768 70.3247 92.9126 68.1491 92.9126 65.5031V51.0383C92.9126 48.3923 93.7356 46.2755 95.3229 44.6879C96.9689 43.1003 99.0852 42.3359 101.789 42.3359C104.494 42.3359 106.669 43.1003 108.315 44.6879C109.961 46.2755 110.725 48.3923 110.725 51.0383V51.5087C110.725 51.6263 110.666 51.8027 110.549 51.9203C110.431 52.0379 110.313 52.0967 110.196 52.0967L104.964 52.3319C104.611 52.3319 104.435 52.1555 104.435 51.8615V50.6855C104.435 49.8035 104.2 49.0979 103.729 48.5687C103.259 48.0395 102.612 47.7455 101.789 47.7455C101.025 47.7455 100.379 48.0395 99.9082 48.5687C99.4379 49.0979 99.2028 49.8035 99.2028 50.6855V66.0911C99.2028 66.9731 99.4379 67.6199 99.9082 68.1491C100.379 68.6783 101.025 68.9135 101.789 68.9135C102.612 68.9135 103.259 68.6783 103.729 68.1491C104.2 67.6199 104.435 66.9143 104.435 66.0911V64.8563C104.435 64.7387 104.494 64.5623 104.611 64.4447C104.729 64.3271 104.846 64.2683 104.964 64.2683L110.196 64.5035C110.313 64.5035 110.49 64.5623 110.549 64.6799C110.607 64.7975 110.725 64.9151 110.725 65.0915V65.5619C110.725 68.2667 109.902 70.3835 108.256 71.9711C106.61 73.5587 104.435 74.3819 101.789 74.3819C99.144 74.3819 96.9689 73.4999 95.3229 71.9123Z" fill="#041E42"/>
<path d="M3.55698 111.896C1.91096 110.191 1.14673 107.957 1.14673 105.193V83.3196C1.14673 83.202 1.20552 83.0256 1.32309 82.9668C1.44066 82.908 1.55824 82.7904 1.67581 82.7904H6.90782C7.0254 82.7904 7.20176 82.8492 7.26054 82.9668C7.37812 83.0844 7.4369 83.202 7.4369 83.3196V105.781C7.4369 106.722 7.67205 107.486 8.14234 108.074C8.61264 108.662 9.25929 108.956 10.0235 108.956C10.7877 108.956 11.4344 108.662 11.9047 108.074C12.375 107.486 12.6101 106.722 12.6101 105.781V83.3196C12.6101 83.202 12.6689 83.0256 12.7865 82.9668C12.9041 82.908 13.0216 82.7904 13.198 82.7904H18.43C18.5476 82.7904 18.7239 82.8492 18.8415 82.9668C18.9591 83.0844 19.0179 83.202 19.0179 83.3196V105.193C19.0179 108.016 18.1949 110.25 16.6076 111.896C15.0204 113.543 12.8453 114.425 10.1999 114.425C7.31933 114.425 5.14422 113.602 3.55698 111.896Z" fill="#041E42"/>
<path d="M35.3017 82.9668C35.4192 82.8492 35.5368 82.7904 35.7132 82.7904H40.8864C41.004 82.7904 41.1803 82.8492 41.2979 82.9668C41.4155 83.0844 41.4743 83.202 41.4743 83.3196V113.543C41.4743 113.66 41.4155 113.837 41.2979 113.896C41.1803 113.954 41.0628 114.072 40.8864 114.072H35.0077C34.7138 114.072 34.5374 113.954 34.4199 113.602L28.8939 96.3144C28.8939 96.2556 28.8351 96.1968 28.7176 96.1968C28.6588 96.1968 28.6 96.2556 28.6 96.3732L28.6588 113.543C28.6588 113.66 28.6 113.837 28.4824 113.896C28.3648 113.954 28.2473 114.072 28.0709 114.072H22.8977C22.7801 114.072 22.6037 114.013 22.4862 113.896C22.3686 113.778 22.3098 113.66 22.3098 113.543V83.3196C22.3098 83.202 22.3686 83.0256 22.4862 82.9668C22.6037 82.908 22.7213 82.7904 22.8977 82.7904H28.7763C29.0703 82.7904 29.2466 82.908 29.3642 83.2608L34.9489 100.548C35.0077 100.607 35.0077 100.666 35.1253 100.666C35.2429 100.666 35.2429 100.607 35.2429 100.489L35.1841 83.3196C35.1253 83.1432 35.1841 83.0256 35.3017 82.9668Z" fill="#041E42"/>
<path d="M45.4718 113.896C45.3542 113.778 45.2954 113.66 45.2954 113.543V83.3196C45.2954 83.202 45.3542 83.0256 45.4718 82.9668C45.5893 82.908 45.7069 82.7904 45.8833 82.7904H51.1153C51.2329 82.7904 51.4092 82.8492 51.5268 82.9668C51.6444 83.0844 51.7032 83.202 51.7032 83.3196V113.543C51.7032 113.66 51.6444 113.837 51.5268 113.896C51.4092 113.954 51.2917 114.072 51.1153 114.072H45.8833C45.7069 114.072 45.5893 114.013 45.4718 113.896Z" fill="#041E42"/>
<path d="M61.0503 113.543L54.6425 83.3196L54.5837 83.1432C54.5837 82.8492 54.7601 82.7316 55.054 82.7316H60.8151C61.1678 82.7316 61.3442 82.908 61.403 83.202L64.4599 102.841C64.5187 102.959 64.5187 103.018 64.5775 103.018C64.6363 103.018 64.695 102.959 64.695 102.841L67.6932 83.202C67.752 82.8492 67.9283 82.7316 68.281 82.7316H73.8658C74.2773 82.7316 74.3948 82.908 74.3361 83.3196L67.9283 113.543C67.8695 113.896 67.6932 114.013 67.3404 114.013H61.6381C61.2854 114.072 61.1091 113.896 61.0503 113.543Z" fill="#041E42"/>
<path d="M93.6182 88.0235C93.5006 88.1411 93.383 88.1999 93.2655 88.1999H83.9184C83.8008 88.1999 83.6832 88.2587 83.6832 88.4351V95.4911C83.6832 95.6087 83.742 95.7263 83.9184 95.7263H89.268C89.3855 95.7263 89.5619 95.7851 89.6207 95.9027C89.7383 96.0203 89.7971 96.1379 89.7971 96.2555V100.607C89.7971 100.724 89.7383 100.901 89.6207 100.96C89.5031 101.077 89.3855 101.136 89.268 101.136H83.9184C83.8008 101.136 83.6832 101.195 83.6832 101.371V108.486C83.6832 108.604 83.742 108.721 83.9184 108.721H93.2655C93.383 108.721 93.5594 108.78 93.6182 108.898C93.7358 109.015 93.7945 109.133 93.7945 109.25V113.602C93.7945 113.719 93.7358 113.896 93.6182 113.954C93.5006 114.072 93.383 114.131 93.2655 114.131H77.9221C77.8046 114.131 77.6282 114.072 77.5694 113.954C77.4519 113.837 77.3931 113.719 77.3931 113.602V83.3783C77.3931 83.2607 77.4519 83.0843 77.5694 83.0255C77.687 82.9079 77.8046 82.8491 77.9221 82.8491H93.2655C93.383 82.8491 93.5594 82.9079 93.6182 83.0255C93.7358 83.1431 93.7945 83.2607 93.7945 83.3783V87.7295C93.7945 87.7883 93.7358 87.9059 93.6182 88.0235Z" fill="#041E42"/>
<path d="M108.668 113.602L105.199 101.254C105.14 101.136 105.082 101.077 104.964 101.077H103.436C103.318 101.077 103.2 101.136 103.2 101.312V113.543C103.2 113.66 103.142 113.837 103.024 113.896C102.906 114.013 102.789 114.072 102.671 114.072H97.4981C97.3805 114.072 97.2041 114.013 97.1453 113.896C97.0278 113.778 96.969 113.66 96.969 113.543V83.3196C96.969 83.202 97.0278 83.0256 97.1453 82.9668C97.2629 82.8492 97.3805 82.7904 97.4981 82.7904H106.551C108.197 82.7904 109.667 83.202 110.901 83.9664C112.136 84.7308 113.194 85.848 113.9 87.318C114.605 88.7292 114.958 90.3756 114.958 92.2572C114.958 94.0212 114.605 95.55 113.958 96.9024C113.312 98.2548 112.371 99.3132 111.137 100.019C111.078 100.078 111.019 100.078 111.019 100.136C111.019 100.195 110.96 100.254 111.019 100.313L115.134 113.484L115.193 113.66C115.193 113.954 115.017 114.131 114.723 114.131H109.373C108.961 114.072 108.785 113.896 108.668 113.602ZM103.259 88.4352V96.0792C103.259 96.1968 103.318 96.3144 103.494 96.3144H105.493C106.434 96.3144 107.198 95.9616 107.727 95.1972C108.315 94.4916 108.609 93.492 108.609 92.2572C108.609 91.0224 108.315 90.0228 107.727 89.2584C107.139 88.5528 106.375 88.1412 105.493 88.1412H103.494C103.377 88.2 103.259 88.2588 103.259 88.4352Z" fill="#041E42"/>
<path d="M121.659 113.366C120.366 112.661 119.367 111.72 118.602 110.485C117.897 109.25 117.544 107.839 117.544 106.193V104.899C117.544 104.782 117.603 104.605 117.721 104.546C117.838 104.429 117.956 104.37 118.073 104.37H123.188C123.305 104.37 123.482 104.429 123.54 104.546C123.658 104.664 123.717 104.782 123.717 104.899V105.899C123.717 106.84 123.952 107.545 124.422 108.133C124.893 108.721 125.48 108.956 126.186 108.956C126.891 108.956 127.479 108.662 127.949 108.133C128.42 107.604 128.655 106.898 128.655 106.016C128.655 105.134 128.361 104.37 127.773 103.723C127.185 103.076 126.01 102.136 124.305 100.901C122.835 99.8424 121.601 98.9016 120.66 98.0196C119.719 97.1964 118.955 96.138 118.308 94.962C117.662 93.7272 117.309 92.316 117.309 90.7284C117.309 88.2 118.073 86.142 119.661 84.672C121.248 83.1432 123.305 82.3788 125.892 82.3788C128.537 82.3788 130.595 83.1432 132.241 84.7308C133.887 86.3184 134.651 88.3764 134.651 90.9636V92.022C134.651 92.1396 134.592 92.316 134.475 92.3748C134.357 92.4924 134.24 92.5512 134.122 92.5512H129.008C128.89 92.5512 128.714 92.4924 128.655 92.3748C128.537 92.2572 128.479 92.1396 128.479 92.022V90.7872C128.479 89.8464 128.243 89.1408 127.773 88.5528C127.303 88.0236 126.715 87.7296 125.951 87.7296C125.245 87.7296 124.657 87.9648 124.187 88.494C123.717 89.0232 123.54 89.7288 123.54 90.6696C123.54 91.5516 123.834 92.3748 124.363 93.0216C124.893 93.6684 126.068 94.668 127.714 95.9028C129.537 97.2552 130.948 98.3724 131.888 99.2544C132.829 100.136 133.534 101.018 134.063 102.077C134.592 103.135 134.828 104.311 134.828 105.781C134.828 108.427 134.004 110.485 132.417 112.014C130.83 113.543 128.714 114.307 126.068 114.307C124.481 114.425 122.953 114.072 121.659 113.366Z" fill="#041E42"/>
<path d="M138.12 113.896C138.002 113.778 137.943 113.66 137.943 113.543V83.3196C137.943 83.202 138.002 83.0256 138.12 82.9668C138.237 82.8492 138.355 82.7904 138.472 82.7904H143.704C143.822 82.7904 143.998 82.8492 144.057 82.9668C144.175 83.0844 144.234 83.202 144.234 83.3196V113.543C144.234 113.66 144.175 113.837 144.057 113.896C143.94 114.013 143.822 114.072 143.704 114.072H138.472C138.355 114.072 138.237 114.013 138.12 113.896Z" fill="#041E42"/>
<path d="M165.985 82.9668C166.102 83.0844 166.161 83.202 166.161 83.3196V87.6708C166.161 87.7884 166.102 87.9648 165.985 88.0236C165.867 88.0824 165.749 88.2 165.632 88.2H160.047C159.93 88.2 159.812 88.2588 159.812 88.4352V113.543C159.812 113.66 159.753 113.837 159.636 113.896C159.518 113.954 159.4 114.072 159.283 114.072H154.051C153.933 114.072 153.757 114.013 153.698 113.896C153.581 113.778 153.522 113.66 153.522 113.543V88.4352C153.522 88.3176 153.463 88.2 153.287 88.2H147.937C147.819 88.2 147.643 88.1412 147.584 88.0236C147.467 87.906 147.408 87.7884 147.408 87.6708V83.3196C147.408 83.202 147.467 83.0256 147.584 82.9668C147.702 82.908 147.819 82.7904 147.937 82.7904H165.632C165.749 82.7904 165.867 82.8492 165.985 82.9668Z" fill="#041E42"/>
<path d="M174.803 113.837C174.685 113.719 174.626 113.602 174.626 113.484V101.842L174.568 101.548L168.336 83.3784C168.336 83.3196 168.277 83.2608 168.277 83.1432C168.277 82.8492 168.454 82.7316 168.748 82.7316H174.274C174.626 82.7316 174.803 82.8492 174.92 83.202L177.683 93.9036C177.683 93.9624 177.742 94.0212 177.801 94.0212C177.86 94.0212 177.918 93.9624 177.918 93.9036L180.681 83.202C180.74 82.908 180.975 82.7316 181.328 82.7316H186.854C187.03 82.7316 187.148 82.7904 187.265 82.908C187.324 83.0256 187.383 83.1432 187.324 83.3784L180.975 101.606L180.916 101.9V113.484C180.916 113.602 180.858 113.778 180.74 113.837C180.623 113.896 180.505 114.013 180.387 114.013H175.155C175.038 114.013 174.861 113.954 174.803 113.837Z" fill="#041E42"/>
<path d="M277.973 33.3984H166.278V1.64636H288.555L277.973 33.3984Z" fill="url(#paint0_linear_1348_5168)"/>
<path d="M263.864 73.9704H116.31V42.2184H233.295L266.804 65.7384L263.864 73.9704Z" fill="url(#paint1_linear_1348_5168)"/>
<path d="M250.343 114.542H192.732V82.7904H260.925L250.343 114.542Z" fill="url(#paint2_linear_1348_5168)"/>
<path d="M350.751 20.58C350.222 20.9328 349.752 21.168 349.164 21.168H315.479C314.95 21.168 314.597 21.462 314.421 21.9912L305.779 47.4516C305.603 47.9808 305.779 48.2748 306.308 48.2748H325.649C326.178 48.2748 326.59 48.4512 326.825 48.8628C327.06 49.2156 327.119 49.686 326.942 50.2152L321.652 65.856C321.475 66.3852 321.123 66.8556 320.593 67.2084C320.064 67.5612 319.594 67.7964 319.006 67.7964H299.665C299.136 67.7964 298.784 68.0904 298.607 68.6196L289.907 94.2564C289.73 94.7856 289.907 95.0796 290.436 95.0796H324.121C324.65 95.0796 325.061 95.256 325.296 95.6676C325.532 96.0204 325.59 96.4908 325.414 97.02L320.123 112.661C319.947 113.19 319.594 113.66 319.065 114.013C318.536 114.366 318.066 114.601 317.478 114.601H262.16C261.63 114.601 261.219 114.425 260.984 114.013C260.749 113.66 260.69 113.19 260.866 112.661L297.902 3.58676C298.078 3.05756 298.431 2.58716 298.96 2.23436C299.489 1.88156 299.959 1.64636 300.547 1.64636H355.865C356.395 1.64636 356.806 1.82276 357.041 2.23436C357.276 2.58716 357.335 3.05756 357.159 3.58676L351.868 19.2276C351.574 19.7568 351.28 20.2272 350.751 20.58Z" fill="#041E42"/>
<path d="M326.59 113.308C326.355 112.955 326.296 112.484 326.472 111.955L363.155 3.93955C363.331 3.41035 363.684 2.93995 364.154 2.58715C364.625 2.23435 365.154 1.99915 365.683 1.99915H394.606C404.306 1.99915 411.125 4.82155 415.064 10.4663C419.002 16.1111 419.414 23.6375 416.239 32.9867L399.309 82.8491C396.134 92.1983 390.667 99.7247 382.907 105.37C375.148 111.014 366.388 113.837 356.689 113.837H327.765C327.236 113.896 326.884 113.66 326.59 113.308ZM355.748 94.5504L362.979 94.3739C365.918 94.2563 368.622 93.0215 371.268 90.6695C373.854 88.3176 375.853 85.2599 377.264 81.3791L393.195 34.4567C394.547 30.3995 394.724 27.2243 393.724 24.8723C392.725 22.5203 390.667 21.3443 387.552 21.3443H380.497C379.968 21.3443 379.615 21.6383 379.439 22.1675L355.16 93.7859C355.042 94.2563 355.219 94.5504 355.748 94.5504Z" fill="#041E42"/>
<path d="M406.128 106.898C402.19 101.43 401.778 94.08 404.894 84.9072L423.176 30.9288C426.292 21.756 431.642 14.4648 439.343 8.93757C446.985 3.46917 455.627 0.705566 465.209 0.705566C474.791 0.705566 481.552 3.46917 485.549 8.99637C489.547 14.5236 489.958 21.8736 486.842 31.0464L484.785 37.1028C484.608 37.632 484.256 38.1024 483.785 38.4552C483.256 38.808 482.786 39.0432 482.257 39.0432H463.563C463.034 39.0432 462.622 38.8668 462.387 38.4552C462.152 38.1024 462.093 37.632 462.27 37.1028L464.445 30.6936C465.503 27.5184 465.562 24.9312 464.503 22.932C463.445 20.9328 461.505 19.992 458.625 19.992C455.862 19.992 453.275 20.9916 450.924 22.932C448.572 24.9312 446.809 27.4596 445.75 30.6936L427.291 85.0836C426.233 88.2588 426.175 90.846 427.233 92.8452C428.291 94.8444 430.172 95.7852 432.935 95.7852C435.816 95.7852 438.461 94.7856 440.812 92.8452C443.164 90.846 444.927 88.3176 445.986 85.0836L450.336 72.324C450.512 71.7948 450.336 71.5008 449.807 71.5008H442.752C442.223 71.5008 441.812 71.3244 441.577 70.9128C441.341 70.56 441.283 70.0896 441.459 69.5604L446.28 55.3308C446.456 54.8016 446.809 54.3312 447.279 53.9784C447.749 53.6256 448.278 53.3904 448.807 53.3904H477.26C477.789 53.3904 478.201 53.5668 478.436 53.9784C478.671 54.3312 478.73 54.8016 478.553 55.3308L468.56 84.9072C465.444 94.08 460.036 101.371 452.335 106.898C444.634 112.367 435.933 115.13 426.351 115.13C416.827 115.13 410.067 112.426 406.128 106.898Z" fill="#041E42"/>
<path d="M555.623 20.7563C555.093 21.1091 554.623 21.3443 554.094 21.3443H520.703C520.174 21.3443 519.821 21.6383 519.645 22.1675L511.062 47.3927C510.886 47.9219 511.062 48.2159 511.591 48.2159H530.756C531.285 48.2159 531.696 48.3923 531.932 48.8039C532.167 49.1567 532.225 49.6271 532.049 50.1563L526.817 65.6795C526.641 66.2087 526.288 66.6791 525.818 67.0319C525.347 67.3847 524.818 67.6199 524.289 67.6199H505.125C504.596 67.6199 504.243 67.9139 504.067 68.4431L495.425 93.8447C495.249 94.374 495.425 94.6679 495.954 94.6679H529.345C529.874 94.6679 530.285 94.8444 530.521 95.256C530.756 95.6087 530.815 96.0791 530.638 96.6084L525.406 112.132C525.23 112.661 524.877 113.131 524.407 113.484C523.878 113.837 523.407 114.072 522.878 114.072H468.089C467.56 114.072 467.149 113.896 466.913 113.484C466.678 113.131 466.62 112.661 466.796 112.132L503.244 3.93955C503.42 3.41035 503.773 2.93995 504.243 2.58715C504.713 2.23435 505.242 1.99915 505.771 1.99915H560.561C561.09 1.99915 561.501 2.17555 561.736 2.58715C561.972 2.93995 562.03 3.41035 561.854 3.93955L556.622 19.4039C556.446 19.9331 556.093 20.4035 555.623 20.7563Z" fill="#041E42"/>
<path d="M174.273 141.179L171.334 132.418C171.334 132.359 171.334 132.359 171.275 132.359H166.631C166.572 132.359 166.514 132.418 166.514 132.477L165.455 141.12C165.397 141.296 165.338 141.414 165.161 141.414H163.751C163.692 141.414 163.633 141.414 163.574 141.355C163.515 141.296 163.515 141.238 163.515 141.179L165.867 122.01C165.867 121.951 165.867 121.892 165.926 121.834C165.984 121.775 166.043 121.775 166.102 121.775H173.215C174.626 121.775 175.743 122.186 176.566 123.01C177.389 123.833 177.801 124.95 177.801 126.361C177.801 126.538 177.801 126.832 177.742 127.185C177.565 128.478 177.095 129.595 176.331 130.536C175.508 131.477 174.508 132.065 173.274 132.3C173.215 132.359 173.156 132.359 173.215 132.418L176.213 141.12V141.238C176.213 141.414 176.155 141.473 175.978 141.473H174.567C174.45 141.355 174.332 141.297 174.273 141.179ZM167.572 123.48L166.69 130.595C166.69 130.654 166.749 130.713 166.807 130.713H171.863C173.039 130.713 173.979 130.301 174.744 129.537C175.508 128.713 175.861 127.714 175.861 126.479C175.861 125.538 175.567 124.774 175.038 124.245C174.508 123.715 173.685 123.421 172.745 123.421H167.689C167.63 123.362 167.572 123.421 167.572 123.48Z" fill="#041E42"/>
<path d="M190.675 134.711C190.675 134.77 190.675 134.828 190.616 134.887C190.557 134.946 190.499 134.946 190.381 134.946H181.563C181.504 134.946 181.445 135.005 181.445 135.064C181.387 135.887 181.328 136.416 181.328 136.651C181.328 137.592 181.622 138.356 182.268 138.944C182.856 139.532 183.738 139.826 184.855 139.826C185.619 139.826 186.325 139.65 186.971 139.297C187.559 138.944 188.088 138.415 188.5 137.768C188.676 137.592 188.794 137.533 188.911 137.651L189.911 138.298C190.087 138.415 190.087 138.533 189.969 138.709C189.382 139.591 188.617 140.297 187.677 140.826C186.736 141.355 185.619 141.59 184.443 141.59C183.15 141.59 182.092 141.238 181.328 140.65C180.564 140.003 180.034 139.18 179.741 138.062C179.623 137.592 179.564 137.004 179.564 136.416C179.564 135.769 179.623 135.005 179.741 134.182C179.858 133.358 179.917 132.712 180.034 132.241C180.152 131.771 180.27 131.3 180.387 130.889C180.858 129.654 181.563 128.713 182.621 127.949C183.679 127.243 184.855 126.832 186.148 126.832C187.794 126.832 189.029 127.243 189.793 128.125C190.557 129.007 190.969 130.242 191.028 131.771C190.969 132.535 190.851 133.476 190.675 134.711ZM183.562 129.36C182.915 129.83 182.445 130.477 182.151 131.3C182.033 131.653 181.857 132.3 181.681 133.241C181.681 133.3 181.739 133.358 181.798 133.358H188.852C188.911 133.358 188.97 133.3 188.97 133.241C189.029 132.476 189.029 132.006 189.029 131.83C189.029 130.889 188.735 130.124 188.206 129.536C187.618 128.948 186.854 128.654 185.854 128.654C184.973 128.596 184.208 128.831 183.562 129.36Z" fill="#041E42"/>
<path d="M193.203 141.061L195.554 121.892C195.613 121.716 195.672 121.598 195.848 121.598H197.259C197.377 121.598 197.435 121.598 197.494 121.657C197.553 121.716 197.553 121.775 197.553 121.834L195.201 141.002C195.201 141.061 195.201 141.12 195.143 141.179C195.084 141.238 195.025 141.238 194.907 141.238H193.497C193.261 141.355 193.203 141.296 193.203 141.061Z" fill="#041E42"/>
<path d="M210.427 134.711C210.427 134.77 210.427 134.828 210.368 134.887C210.31 134.946 210.251 134.946 210.133 134.946H201.315C201.256 134.946 201.198 135.005 201.198 135.064C201.139 135.887 201.08 136.416 201.08 136.651C201.08 137.592 201.374 138.356 202.021 138.944C202.608 139.532 203.49 139.826 204.607 139.826C205.371 139.826 206.077 139.65 206.724 139.297C207.311 138.944 207.84 138.415 208.252 137.768C208.428 137.592 208.546 137.533 208.663 137.651L209.663 138.298C209.839 138.415 209.839 138.533 209.722 138.709C209.134 139.591 208.37 140.297 207.429 140.826C206.488 141.355 205.371 141.59 204.196 141.59C202.902 141.59 201.844 141.238 201.08 140.65C200.316 140.003 199.787 139.18 199.493 138.062C199.375 137.592 199.316 137.004 199.316 136.416C199.316 135.769 199.375 135.005 199.493 134.182C199.61 133.358 199.669 132.712 199.787 132.241C199.904 131.771 200.022 131.3 200.139 130.889C200.61 129.654 201.315 128.713 202.373 127.949C203.431 127.243 204.607 126.832 205.901 126.832C207.547 126.832 208.781 127.243 209.545 128.125C210.31 129.007 210.721 130.242 210.78 131.771C210.721 132.535 210.603 133.476 210.427 134.711ZM203.314 129.36C202.667 129.83 202.197 130.477 201.903 131.3C201.785 131.653 201.609 132.3 201.433 133.241C201.433 133.3 201.492 133.358 201.55 133.358H208.605C208.663 133.358 208.722 133.3 208.722 133.241C208.781 132.476 208.781 132.006 208.781 131.83C208.781 130.889 208.487 130.124 207.958 129.536C207.37 128.948 206.606 128.654 205.607 128.654C204.725 128.596 203.961 128.831 203.314 129.36Z" fill="#041E42"/>
<path d="M215.835 141.12L213.014 127.361V127.302C213.014 127.126 213.072 127.067 213.249 127.067H214.836C215.012 127.067 215.071 127.126 215.13 127.302L217.246 138.356C217.246 138.415 217.246 138.415 217.305 138.415C217.364 138.415 217.364 138.415 217.364 138.356L222.184 127.302C222.184 127.243 222.243 127.184 222.302 127.126C222.361 127.067 222.42 127.067 222.478 127.067H224.066C224.183 127.067 224.242 127.067 224.242 127.126C224.242 127.184 224.242 127.243 224.242 127.361L218.011 141.12C218.011 141.179 217.952 141.238 217.893 141.296C217.834 141.355 217.775 141.355 217.717 141.355H216.129C215.953 141.355 215.835 141.296 215.835 141.12Z" fill="#041E42"/>
<path d="M234.824 127.184C234.882 127.126 234.941 127.126 235.059 127.126H236.47C236.646 127.126 236.705 127.243 236.705 127.42L235 141.12C234.941 141.296 234.882 141.414 234.706 141.414H233.295C233.236 141.414 233.178 141.414 233.119 141.355C233.06 141.296 233.06 141.238 233.06 141.179L233.236 139.532C233.236 139.474 233.236 139.415 233.236 139.415C233.178 139.415 233.178 139.415 233.178 139.474C232.707 140.179 232.178 140.708 231.473 141.061C230.767 141.473 230.003 141.649 229.121 141.649C227.769 141.649 226.711 141.238 225.888 140.356C225.065 139.474 224.654 138.356 224.654 136.945C224.654 136.475 224.712 135.593 224.889 134.299C225.006 133.476 225.065 132.77 225.183 132.182C225.3 131.653 225.418 131.124 225.594 130.654C226.006 129.536 226.711 128.654 227.652 127.949C228.592 127.243 229.709 126.89 230.944 126.89C232.649 126.89 233.824 127.596 234.412 129.007C234.412 129.066 234.471 129.066 234.471 129.066C234.471 129.066 234.53 129.007 234.53 128.948L234.706 127.361C234.706 127.302 234.765 127.243 234.824 127.184ZM233.589 136.181C233.648 135.828 233.766 135.181 233.883 134.24C234.001 133.006 234.059 132.182 234.059 131.888C234.059 131.653 234.059 131.477 234.059 131.3C234.001 130.536 233.766 129.889 233.236 129.36C232.707 128.831 232.002 128.596 231.179 128.596C230.297 128.596 229.533 128.831 228.827 129.36C228.122 129.889 227.652 130.536 227.417 131.3C227.299 131.594 227.24 131.947 227.123 132.3C227.064 132.653 226.946 133.3 226.829 134.24C226.652 135.358 226.594 136.122 226.594 136.475C226.594 136.651 226.594 136.886 226.652 137.122C226.711 137.886 227.005 138.533 227.593 139.062C228.181 139.591 228.886 139.826 229.709 139.826C230.591 139.826 231.296 139.591 231.943 139.062C232.59 138.533 233.001 137.886 233.295 137.122C233.413 136.828 233.53 136.534 233.589 136.181Z" fill="#041E42"/>
<path d="M249.403 128.008C250.167 128.713 250.52 129.713 250.52 131.006C250.52 131.183 250.52 131.418 250.461 131.771L249.344 141.061C249.285 141.238 249.226 141.355 249.05 141.355H247.639C247.58 141.355 247.521 141.355 247.463 141.296C247.404 141.238 247.404 141.179 247.404 141.12L248.521 132.182C248.521 132.065 248.521 131.888 248.521 131.594C248.521 130.712 248.286 129.948 247.757 129.419C247.227 128.89 246.522 128.596 245.64 128.596C244.641 128.596 243.759 128.89 243.054 129.536C242.348 130.183 241.937 131.006 241.819 132.065L240.702 141.061C240.702 141.12 240.702 141.179 240.643 141.238C240.585 141.296 240.526 141.296 240.408 141.296H238.997C238.821 141.296 238.762 141.179 238.762 141.002L240.467 127.302C240.526 127.126 240.585 127.008 240.761 127.008H242.172C242.289 127.008 242.348 127.008 242.407 127.067C242.466 127.126 242.466 127.184 242.466 127.243L242.348 128.478C242.348 128.537 242.348 128.537 242.348 128.537C242.348 128.537 242.407 128.537 242.466 128.537C242.936 127.949 243.465 127.537 244.171 127.243C244.817 126.949 245.581 126.832 246.404 126.832C247.58 126.89 248.638 127.243 249.403 128.008Z" fill="#041E42"/>
<path d="M260.631 128.654C260.572 128.713 260.513 128.713 260.455 128.713H257.339C257.28 128.713 257.221 128.772 257.221 128.831L256.163 137.18C256.163 137.357 256.163 137.533 256.163 137.768C256.163 138.474 256.339 138.944 256.692 139.18C257.045 139.474 257.574 139.591 258.338 139.591H259.044C259.22 139.591 259.279 139.709 259.279 139.885L259.161 141.061C259.102 141.238 259.044 141.355 258.867 141.355C258.632 141.355 258.279 141.355 257.868 141.355C256.692 141.355 255.81 141.179 255.164 140.767C254.576 140.356 254.223 139.65 254.223 138.592C254.223 138.415 254.223 138.121 254.282 137.768L255.399 128.831C255.399 128.772 255.34 128.713 255.281 128.713H253.635C253.459 128.713 253.4 128.596 253.4 128.419L253.518 127.302C253.518 127.243 253.577 127.184 253.635 127.126C253.694 127.067 253.753 127.067 253.812 127.067H255.516H255.575L255.634 127.008L256.046 123.715C256.104 123.539 256.163 123.421 256.339 123.421H257.692C257.75 123.421 257.809 123.421 257.868 123.48C257.927 123.539 257.927 123.598 257.927 123.656L257.515 126.949C257.515 127.008 257.515 127.067 257.574 127.067H260.69C260.866 127.067 260.925 127.184 260.925 127.361L260.807 128.478C260.748 128.537 260.69 128.596 260.631 128.654Z" fill="#041E42"/>
<path d="M267.685 141.296C267.626 141.238 267.626 141.179 267.626 141.12L269.978 121.951C269.978 121.892 269.978 121.834 270.037 121.775C270.096 121.716 270.154 121.716 270.213 121.716H271.624C271.8 121.716 271.859 121.834 271.859 122.01L269.508 141.179C269.449 141.355 269.39 141.473 269.214 141.473H267.803C267.803 141.355 267.744 141.355 267.685 141.296Z" fill="#041E42"/>
<path d="M284.381 128.008C285.145 128.713 285.498 129.713 285.498 131.006C285.498 131.183 285.498 131.418 285.439 131.771L284.322 141.061C284.263 141.238 284.205 141.355 284.028 141.355H282.617C282.558 141.355 282.5 141.355 282.441 141.296C282.382 141.238 282.382 141.179 282.382 141.12L283.499 132.182C283.499 132.065 283.499 131.888 283.499 131.594C283.499 130.712 283.264 129.948 282.735 129.419C282.206 128.89 281.5 128.596 280.619 128.596C279.619 128.596 278.737 128.89 278.032 129.536C277.326 130.183 276.915 131.006 276.797 132.065L275.68 141.061C275.68 141.12 275.68 141.179 275.622 141.238C275.563 141.296 275.504 141.296 275.387 141.296H273.976C273.799 141.296 273.74 141.179 273.74 141.002L275.445 127.302C275.504 127.126 275.563 127.008 275.739 127.008H277.15C277.268 127.008 277.326 127.008 277.385 127.067C277.444 127.126 277.444 127.184 277.444 127.243L277.326 128.478C277.326 128.537 277.326 128.537 277.326 128.537C277.326 128.537 277.385 128.537 277.444 128.537C277.914 127.949 278.443 127.537 279.149 127.243C279.796 126.949 280.56 126.832 281.383 126.832C282.617 126.89 283.675 127.243 284.381 128.008Z" fill="#041E42"/>
<path d="M289.025 140.532C288.143 139.885 287.732 139.062 287.732 138.121C287.732 137.945 287.732 137.827 287.732 137.768V137.416C287.79 137.239 287.849 137.122 288.026 137.122H289.378C289.436 137.122 289.495 137.122 289.554 137.18C289.613 137.239 289.613 137.298 289.613 137.357V137.592C289.554 138.004 289.672 138.356 289.907 138.709C290.142 139.062 290.495 139.356 290.965 139.591C291.435 139.826 292.023 139.944 292.611 139.944C293.61 139.944 294.433 139.709 295.08 139.18C295.727 138.709 296.079 138.062 296.079 137.357C296.079 136.945 295.962 136.592 295.668 136.357C295.374 136.122 295.08 135.887 294.727 135.71C294.375 135.534 293.787 135.358 292.964 135.064C292.023 134.77 291.259 134.476 290.671 134.182C290.083 133.888 289.554 133.535 289.201 133.064C288.79 132.594 288.613 132.006 288.613 131.3C288.613 131.124 288.613 130.948 288.613 130.83C288.79 129.654 289.319 128.654 290.377 127.949C291.376 127.243 292.611 126.89 294.139 126.89C295.55 126.89 296.726 127.243 297.549 127.89C298.372 128.537 298.784 129.36 298.784 130.36C298.784 130.536 298.784 130.712 298.784 130.771V130.83C298.725 131.006 298.666 131.124 298.49 131.124H297.196C297.079 131.124 297.02 131.124 296.961 131.065C296.902 131.006 296.902 130.948 296.902 130.889V130.83C296.961 130.183 296.726 129.654 296.197 129.242C295.668 128.831 294.904 128.596 293.904 128.596C292.905 128.596 292.141 128.831 291.494 129.242C290.847 129.654 290.553 130.242 290.553 131.006C290.553 131.594 290.789 132.006 291.259 132.3C291.729 132.594 292.493 132.947 293.552 133.241C294.551 133.535 295.315 133.829 295.903 134.064C296.491 134.299 297.02 134.711 297.431 135.181C297.843 135.652 298.078 136.24 298.078 137.004C298.078 137.239 298.078 137.357 298.078 137.474C297.902 138.65 297.314 139.65 296.315 140.414C295.315 141.179 294.022 141.532 292.493 141.532C291.083 141.532 289.907 141.179 289.025 140.532Z" fill="#041E42"/>
<path d="M300.9 141.061L302.605 127.361C302.664 127.184 302.722 127.067 302.899 127.067H304.31C304.427 127.067 304.486 127.067 304.545 127.126C304.603 127.184 304.603 127.243 304.603 127.302L302.899 141.002C302.84 141.179 302.781 141.296 302.605 141.296H301.194C300.959 141.355 300.9 141.238 300.9 141.061ZM302.957 124.127C302.722 123.892 302.605 123.539 302.605 123.127C302.605 122.598 302.781 122.186 303.134 121.834C303.487 121.481 303.898 121.304 304.368 121.304C304.78 121.304 305.074 121.422 305.368 121.657C305.603 121.892 305.72 122.245 305.72 122.657C305.72 123.186 305.544 123.598 305.191 123.95C304.839 124.303 304.427 124.48 303.957 124.48C303.545 124.48 303.251 124.362 302.957 124.127Z" fill="#041E42"/>
<path d="M317.36 127.184C317.419 127.126 317.478 127.126 317.595 127.126H319.006C319.182 127.126 319.241 127.243 319.241 127.42L317.595 140.944C317.36 143.06 316.537 144.589 315.244 145.589C313.95 146.588 312.246 147.059 310.247 147.059C309.835 147.059 309.483 147.059 309.306 147.059C309.13 147.059 309.012 146.941 309.071 146.765L309.306 145.471C309.365 145.236 309.424 145.177 309.6 145.236H310.364C312.01 145.236 313.304 144.883 314.127 144.178C314.95 143.472 315.479 142.414 315.655 140.944L315.773 139.885C315.773 139.826 315.773 139.826 315.714 139.826C315.655 139.826 315.655 139.826 315.596 139.885C314.656 141.002 313.363 141.59 311.834 141.59C310.658 141.59 309.659 141.238 308.777 140.591C307.954 139.944 307.425 139.003 307.249 137.768C307.19 137.357 307.19 137.004 307.19 136.71C307.19 136.004 307.249 135.24 307.366 134.299C307.543 132.653 307.837 131.477 308.131 130.712C308.601 129.595 309.306 128.654 310.247 128.008C311.187 127.302 312.246 126.949 313.48 126.949C315.126 126.949 316.243 127.478 317.007 128.596C317.007 128.654 317.066 128.654 317.066 128.596C317.125 128.596 317.125 128.537 317.125 128.537L317.242 127.42C317.301 127.302 317.301 127.243 317.36 127.184ZM316.184 136.063C316.243 135.71 316.302 135.122 316.419 134.182C316.596 132.947 316.655 132.124 316.655 131.771C316.655 131.594 316.655 131.418 316.655 131.3C316.596 130.536 316.361 129.83 315.832 129.36C315.303 128.831 314.597 128.596 313.715 128.596C312.833 128.596 312.069 128.831 311.423 129.36C310.776 129.889 310.247 130.536 309.953 131.359C309.718 131.947 309.483 132.888 309.306 134.182C309.189 134.887 309.189 135.534 309.189 136.181C309.189 136.534 309.189 136.828 309.247 137.004C309.365 137.768 309.659 138.474 310.247 138.944C310.776 139.474 311.54 139.709 312.363 139.709C313.245 139.709 314.009 139.474 314.656 138.944C315.303 138.415 315.714 137.768 315.949 137.004C316.067 136.769 316.126 136.416 316.184 136.063Z" fill="#041E42"/>
<path d="M331.704 128.008C332.468 128.713 332.821 129.713 332.821 131.006C332.821 131.183 332.821 131.418 332.762 131.771L331.645 141.061C331.587 141.238 331.528 141.355 331.351 141.355H329.941C329.882 141.355 329.823 141.355 329.764 141.296C329.705 141.238 329.705 141.179 329.705 141.12L330.822 132.182C330.822 132.065 330.822 131.888 330.822 131.594C330.822 130.712 330.587 129.948 330.058 129.419C329.529 128.89 328.824 128.596 327.942 128.596C326.942 128.596 326.061 128.89 325.355 129.536C324.65 130.183 324.238 131.006 324.121 132.065L323.004 141.061C323.004 141.12 323.004 141.179 322.945 141.238C322.886 141.296 322.827 141.296 322.71 141.296H321.299C321.123 141.296 321.064 141.179 321.064 141.002L323.415 121.834C323.474 121.657 323.533 121.54 323.709 121.54H325.12C325.238 121.54 325.296 121.54 325.355 121.598C325.414 121.657 325.414 121.716 325.414 121.775L324.591 128.478C324.591 128.537 324.591 128.537 324.591 128.537C324.591 128.537 324.65 128.537 324.709 128.537C325.179 127.949 325.708 127.537 326.413 127.243C327.06 126.949 327.824 126.832 328.647 126.832C329.941 126.89 330.999 127.243 331.704 128.008Z" fill="#041E42"/>
<path d="M342.991 128.654C342.932 128.713 342.873 128.713 342.815 128.713H339.699C339.64 128.713 339.581 128.772 339.581 128.831L338.523 137.18C338.523 137.357 338.523 137.533 338.523 137.768C338.523 138.474 338.7 138.944 339.052 139.18C339.405 139.474 339.934 139.591 340.698 139.591H341.404C341.58 139.591 341.639 139.709 341.639 139.885L341.521 141.061C341.463 141.238 341.404 141.355 341.227 141.355C340.992 141.355 340.64 141.355 340.228 141.355C339.052 141.355 338.171 141.179 337.524 140.767C336.936 140.356 336.583 139.65 336.583 138.592C336.583 138.415 336.583 138.121 336.642 137.768L337.759 128.831C337.759 128.772 337.7 128.713 337.641 128.713H335.995C335.819 128.713 335.76 128.596 335.76 128.419L335.878 127.302C335.878 127.243 335.937 127.184 335.995 127.126C336.054 127.067 336.113 127.067 336.172 127.067H337.877H337.935L337.994 127.008L338.406 123.715C338.464 123.539 338.523 123.421 338.7 123.421H340.052C340.11 123.421 340.169 123.421 340.228 123.48C340.287 123.539 340.287 123.598 340.287 123.656L339.875 126.949C339.875 127.008 339.875 127.067 339.934 127.067H343.05C343.226 127.067 343.285 127.184 343.285 127.361L343.167 128.478C343.05 128.537 343.05 128.596 342.991 128.654Z" fill="#041E42"/>
<path d="M345.754 140.532C344.872 139.885 344.461 139.062 344.461 138.121C344.461 137.945 344.461 137.827 344.461 137.768V137.416C344.52 137.239 344.579 137.122 344.755 137.122H346.107C346.166 137.122 346.225 137.122 346.283 137.18C346.342 137.239 346.342 137.298 346.342 137.357V137.592C346.283 138.004 346.401 138.356 346.636 138.709C346.871 139.062 347.224 139.356 347.694 139.591C348.164 139.826 348.752 139.944 349.34 139.944C350.34 139.944 351.163 139.709 351.809 139.18C352.456 138.709 352.809 138.062 352.809 137.357C352.809 136.945 352.691 136.592 352.397 136.357C352.103 136.122 351.809 135.887 351.457 135.71C351.104 135.534 350.516 135.358 349.693 135.064C348.752 134.77 347.988 134.476 347.4 134.182C346.812 133.888 346.283 133.535 345.931 133.064C345.519 132.594 345.343 132.006 345.343 131.3C345.343 131.124 345.343 130.948 345.343 130.83C345.519 129.654 346.048 128.654 347.106 127.949C348.106 127.243 349.34 126.89 350.869 126.89C352.28 126.89 353.455 127.243 354.278 127.89C355.101 128.537 355.513 129.36 355.513 130.36C355.513 130.536 355.513 130.712 355.513 130.771V130.83C355.454 131.006 355.395 131.124 355.219 131.124H353.926C353.808 131.124 353.749 131.124 353.69 131.065C353.632 131.006 353.632 130.948 353.632 130.889V130.83C353.69 130.183 353.455 129.654 352.926 129.242C352.397 128.831 351.633 128.596 350.634 128.596C349.634 128.596 348.87 128.831 348.223 129.242C347.577 129.654 347.283 130.242 347.283 131.006C347.283 131.594 347.518 132.006 347.988 132.3C348.458 132.594 349.223 132.947 350.281 133.241C351.28 133.535 352.044 133.829 352.632 134.064C353.22 134.299 353.749 134.711 354.161 135.181C354.572 135.652 354.807 136.24 354.807 137.004C354.807 137.239 354.807 137.357 354.807 137.474C354.631 138.65 354.043 139.65 353.044 140.414C352.044 141.179 350.751 141.532 349.223 141.532C347.753 141.532 346.636 141.179 345.754 140.532Z" fill="#041E42"/>
<path d="M374.207 131.83C374.207 132.535 374.148 133.3 374.03 134.24C373.854 135.769 373.56 137.004 373.207 137.827C372.737 139.003 371.973 139.944 371.032 140.591C370.092 141.296 368.975 141.59 367.74 141.59C367.035 141.59 366.329 141.414 365.8 141.12C365.271 140.826 364.801 140.414 364.448 139.826C364.448 139.768 364.389 139.768 364.389 139.768C364.331 139.768 364.331 139.826 364.331 139.826L364.154 141.061C364.154 141.12 364.154 141.179 364.096 141.238C364.037 141.296 363.978 141.296 363.86 141.296H362.45C362.273 141.296 362.214 141.179 362.214 141.002L364.566 121.834C364.625 121.657 364.683 121.54 364.86 121.54H366.271C366.388 121.54 366.447 121.54 366.506 121.598C366.565 121.657 366.565 121.716 366.565 121.775L365.742 128.419C365.742 128.478 365.742 128.478 365.742 128.478C365.742 128.478 365.8 128.478 365.859 128.419C366.329 127.89 366.859 127.478 367.505 127.126C368.152 126.832 368.857 126.655 369.563 126.655C370.856 126.655 371.914 127.008 372.678 127.714C373.443 128.419 373.972 129.36 374.148 130.536C374.207 131.183 374.207 131.536 374.207 131.83ZM371.738 136.298C371.855 135.828 371.973 135.122 372.091 134.24C372.208 133.417 372.208 132.829 372.208 132.418C372.208 131.771 372.091 131.183 371.914 130.654C371.738 130.007 371.444 129.536 370.915 129.184C370.444 128.831 369.798 128.596 369.092 128.596C368.387 128.596 367.74 128.772 367.211 129.184C366.682 129.536 366.271 130.066 365.977 130.712C365.742 131.124 365.565 131.536 365.389 132.065C365.271 132.594 365.095 133.3 365.036 134.182C364.919 135.064 364.919 135.71 364.919 136.063C364.919 136.651 364.977 137.18 365.154 137.592C365.33 138.239 365.624 138.768 366.035 139.18C366.506 139.591 367.094 139.768 367.799 139.768C368.563 139.768 369.21 139.591 369.857 139.18C370.444 138.768 370.915 138.239 371.209 137.592C371.444 137.239 371.62 136.828 371.738 136.298Z" fill="#041E42"/>
<path d="M374.854 146.706L374.971 145.589C374.971 145.53 374.971 145.471 375.03 145.412C375.089 145.354 375.148 145.354 375.265 145.354H375.324C376.029 145.354 376.617 145.236 377.029 145.001C377.44 144.824 377.852 144.413 378.146 143.942C378.498 143.413 378.91 142.59 379.38 141.473C379.38 141.414 379.439 141.414 379.439 141.355V141.296L376.558 127.42V127.361C376.558 127.184 376.617 127.126 376.794 127.126H378.204C378.381 127.126 378.44 127.184 378.498 127.361L380.615 138.768C380.615 138.827 380.674 138.827 380.674 138.827C380.732 138.827 380.732 138.827 380.732 138.768L385.67 127.361C385.67 127.302 385.729 127.243 385.788 127.184C385.847 127.126 385.906 127.126 385.964 127.126H387.375C387.61 127.126 387.61 127.243 387.552 127.42L380.85 142.59C380.262 143.825 379.733 144.766 379.263 145.412C378.792 146 378.263 146.412 377.675 146.647C377.088 146.882 376.265 147 375.206 147H374.971C374.854 147 374.795 146.941 374.854 146.706Z" fill="#041E42"/>
<path d="M400.955 128.654C400.896 128.713 400.837 128.713 400.779 128.713H397.663C397.604 128.713 397.545 128.772 397.545 128.831L396.487 137.18C396.487 137.357 396.487 137.533 396.487 137.768C396.487 138.474 396.663 138.944 397.016 139.18C397.369 139.474 397.898 139.591 398.662 139.591H399.368C399.544 139.591 399.603 139.709 399.603 139.885L399.485 141.061C399.426 141.238 399.368 141.355 399.191 141.355C398.956 141.355 398.603 141.355 398.192 141.355C397.016 141.355 396.134 141.179 395.488 140.767C394.9 140.356 394.547 139.65 394.547 138.592C394.547 138.415 394.547 138.121 394.606 137.768L395.723 128.831C395.723 128.772 395.664 128.713 395.605 128.713H393.959C393.783 128.713 393.724 128.596 393.724 128.419L393.842 127.302C393.842 127.243 393.9 127.184 393.959 127.126C394.018 127.067 394.077 127.067 394.136 127.067H395.84H395.899L395.958 127.008L396.37 123.715C396.428 123.539 396.487 123.421 396.663 123.421H398.016C398.074 123.421 398.133 123.421 398.192 123.48C398.251 123.539 398.251 123.598 398.251 123.656L397.839 126.949C397.839 127.008 397.839 127.067 397.898 127.067H401.014C401.19 127.067 401.249 127.184 401.249 127.361L401.131 128.478C401.072 128.537 401.014 128.596 400.955 128.654Z" fill="#041E42"/>
<path d="M413.3 128.008C414.064 128.713 414.417 129.713 414.417 131.006C414.417 131.183 414.417 131.418 414.358 131.771L413.241 141.061C413.182 141.238 413.124 141.355 412.947 141.355H411.536C411.478 141.355 411.419 141.355 411.36 141.296C411.301 141.238 411.301 141.179 411.301 141.12L412.418 132.182C412.418 132.065 412.418 131.888 412.418 131.594C412.418 130.712 412.183 129.948 411.654 129.419C411.125 128.89 410.42 128.596 409.538 128.596C408.538 128.596 407.657 128.89 406.951 129.536C406.246 130.183 405.834 131.006 405.717 132.065L404.6 141.061C404.6 141.12 404.6 141.179 404.541 141.238C404.482 141.296 404.423 141.296 404.306 141.296H402.895C402.718 141.296 402.66 141.179 402.66 141.002L405.011 121.834C405.07 121.657 405.129 121.54 405.305 121.54H406.716C406.834 121.54 406.892 121.54 406.951 121.598C407.01 121.657 407.01 121.716 407.01 121.775L406.187 128.478C406.187 128.537 406.187 128.537 406.187 128.537C406.187 128.537 406.246 128.537 406.304 128.537C406.775 127.949 407.304 127.537 408.009 127.243C408.656 126.949 409.42 126.832 410.243 126.832C411.536 126.89 412.536 127.243 413.3 128.008Z" fill="#041E42"/>
<path d="M428.173 134.711C428.173 134.77 428.173 134.828 428.114 134.887C428.056 134.946 427.997 134.946 427.879 134.946H419.061C419.002 134.946 418.944 135.005 418.944 135.064C418.885 135.887 418.826 136.416 418.826 136.651C418.826 137.592 419.12 138.356 419.767 138.944C420.355 139.532 421.236 139.826 422.353 139.826C423.118 139.826 423.823 139.65 424.47 139.297C425.058 138.944 425.587 138.415 425.998 137.768C426.174 137.592 426.292 137.533 426.41 137.651L427.409 138.298C427.585 138.415 427.585 138.533 427.468 138.709C426.88 139.591 426.116 140.297 425.175 140.826C424.235 141.355 423.118 141.59 421.942 141.59C420.649 141.59 419.59 141.238 418.826 140.65C418.062 140.003 417.533 139.18 417.239 138.062C417.121 137.592 417.062 137.004 417.062 136.416C417.062 135.769 417.121 135.005 417.239 134.182C417.356 133.358 417.415 132.712 417.533 132.241C417.65 131.771 417.768 131.3 417.886 130.889C418.356 129.654 419.061 128.713 420.119 127.949C421.178 127.243 422.353 126.832 423.647 126.832C425.293 126.832 426.527 127.243 427.291 128.125C428.056 129.007 428.467 130.242 428.526 131.771C428.467 132.535 428.35 133.476 428.173 134.711ZM421.06 129.36C420.413 129.83 419.943 130.477 419.649 131.3C419.532 131.653 419.355 132.3 419.179 133.241C419.179 133.3 419.238 133.358 419.296 133.358H426.351C426.41 133.358 426.468 133.3 426.468 133.241C426.527 132.476 426.527 132.006 426.527 131.83C426.527 130.889 426.233 130.124 425.704 129.536C425.116 128.948 424.352 128.654 423.353 128.654C422.471 128.596 421.707 128.831 421.06 129.36Z" fill="#041E42"/>
<path d="M450.336 123.362H440.224C440.166 123.362 440.107 123.421 440.107 123.48L439.284 130.477C439.284 130.536 439.343 130.595 439.401 130.595H446.456C446.632 130.595 446.691 130.712 446.691 130.889L446.573 132.065C446.515 132.241 446.456 132.359 446.279 132.359H439.225C439.166 132.359 439.107 132.418 439.107 132.476L438.226 139.532C438.226 139.591 438.226 139.65 438.284 139.65H448.337C448.513 139.65 448.572 139.768 448.572 139.944L448.396 141.12C448.396 141.179 448.396 141.238 448.337 141.296C448.278 141.355 448.219 141.355 448.102 141.355H436.227C436.168 141.355 436.109 141.355 436.051 141.296C435.992 141.238 435.992 141.179 435.992 141.12L438.343 121.951C438.343 121.892 438.343 121.834 438.402 121.775C438.461 121.716 438.52 121.716 438.578 121.716H450.453C450.571 121.716 450.63 121.716 450.688 121.775C450.747 121.834 450.747 121.892 450.747 121.951L450.63 123.127C450.571 123.245 450.512 123.362 450.336 123.362Z" fill="#041E42"/>
<path d="M450.218 141.238C450.159 141.179 450.218 141.061 450.277 141.002L455.685 134.299C455.744 134.24 455.744 134.182 455.685 134.123L451.923 127.42C451.923 127.42 451.923 127.361 451.923 127.302C451.923 127.126 452.041 127.067 452.217 127.067H453.687C453.863 127.067 453.981 127.126 453.981 127.243L456.92 132.594C456.92 132.594 456.92 132.594 456.979 132.594C457.037 132.594 457.037 132.594 457.096 132.594L461.329 127.243C461.388 127.126 461.505 127.067 461.682 127.067H463.269C463.386 127.067 463.445 127.126 463.504 127.184C463.504 127.243 463.504 127.302 463.445 127.42L458.037 134.123C457.978 134.182 457.978 134.24 458.037 134.299L461.799 141.002C461.858 141.061 461.858 141.12 461.858 141.12C461.858 141.238 461.74 141.296 461.564 141.296H460.094C459.918 141.296 459.8 141.238 459.8 141.12L456.92 135.769C456.92 135.71 456.861 135.71 456.861 135.71C456.802 135.71 456.802 135.71 456.802 135.769L452.57 141.12C452.511 141.238 452.393 141.296 452.217 141.296H450.63C450.336 141.355 450.218 141.355 450.218 141.238Z" fill="#041E42"/>
<path d="M476.261 132.124C476.261 132.653 476.202 133.358 476.143 134.24C475.967 135.71 475.731 136.886 475.379 137.768C474.908 138.944 474.203 139.944 473.262 140.591C472.322 141.296 471.205 141.649 469.853 141.649C469.147 141.649 468.501 141.532 467.913 141.238C467.384 140.944 466.913 140.532 466.561 140.003C466.561 139.944 466.502 139.944 466.502 139.944C466.443 139.944 466.443 140.003 466.443 140.003L465.62 146.647C465.62 146.706 465.62 146.765 465.561 146.824C465.503 146.882 465.444 146.882 465.326 146.882H463.915C463.739 146.882 463.68 146.765 463.68 146.588L466.032 127.42C466.09 127.243 466.149 127.126 466.326 127.126H467.736C467.913 127.126 467.972 127.243 467.972 127.42L467.854 128.596C467.854 128.654 467.854 128.654 467.854 128.654C467.854 128.654 467.913 128.654 467.972 128.596C468.442 128.066 468.971 127.655 469.618 127.302C470.264 127.008 470.911 126.832 471.675 126.832C472.968 126.832 473.968 127.184 474.791 127.831C475.555 128.537 476.084 129.419 476.261 130.595C476.261 131.065 476.261 131.536 476.261 132.124ZM473.733 136.357C473.909 135.828 474.027 135.122 474.144 134.24C474.262 133.594 474.262 132.947 474.262 132.3C474.262 131.771 474.203 131.3 474.085 130.83C473.909 130.124 473.615 129.595 473.086 129.242C472.557 128.831 471.969 128.654 471.205 128.654C470.499 128.654 469.853 128.831 469.265 129.242C468.736 129.654 468.266 130.183 467.972 130.83C467.736 131.242 467.619 131.653 467.443 132.182C467.266 132.712 467.207 133.358 467.09 134.299C466.972 135.005 466.972 135.652 466.972 136.298C466.972 136.828 467.031 137.357 467.149 137.827C467.325 138.474 467.619 139.003 468.03 139.356C468.501 139.768 469.03 139.944 469.735 139.944C470.441 139.944 471.146 139.768 471.734 139.356C472.322 139.003 472.733 138.474 473.086 137.886C473.38 137.357 473.615 136.886 473.733 136.357Z" fill="#041E42"/>
<path d="M490.016 134.711C490.016 134.77 490.016 134.828 489.958 134.887C489.899 134.946 489.84 134.946 489.723 134.946H480.905C480.846 134.946 480.787 135.005 480.787 135.064C480.728 135.887 480.669 136.416 480.669 136.651C480.669 137.592 480.963 138.356 481.61 138.944C482.198 139.532 483.08 139.826 484.197 139.826C484.961 139.826 485.666 139.65 486.313 139.297C486.901 138.944 487.43 138.415 487.841 137.768C488.018 137.592 488.135 137.533 488.253 137.651L489.252 138.298C489.429 138.415 489.429 138.533 489.311 138.709C488.723 139.591 487.959 140.297 487.018 140.826C486.078 141.355 484.961 141.59 483.785 141.59C482.492 141.59 481.434 141.238 480.669 140.65C479.905 140.003 479.376 139.18 479.082 138.062C478.965 137.592 478.906 137.004 478.906 136.416C478.906 135.769 478.965 135.005 479.082 134.182C479.2 133.358 479.258 132.712 479.376 132.241C479.494 131.771 479.611 131.3 479.729 130.889C480.199 129.654 480.905 128.713 481.963 127.949C483.021 127.243 484.197 126.832 485.49 126.832C487.136 126.832 488.37 127.243 489.135 128.125C489.899 129.007 490.31 130.242 490.369 131.771C490.252 132.535 490.193 133.476 490.016 134.711ZM482.844 129.36C482.198 129.83 481.728 130.477 481.434 131.3C481.316 131.653 481.14 132.3 480.963 133.241C480.963 133.3 481.022 133.358 481.081 133.358H488.135C488.194 133.358 488.253 133.3 488.253 133.241C488.312 132.476 488.312 132.006 488.312 131.83C488.312 130.889 488.018 130.124 487.489 129.536C486.901 128.948 486.137 128.654 485.137 128.654C484.255 128.596 483.491 128.831 482.844 129.36Z" fill="#041E42"/>
<path d="M501.362 127.302C501.48 127.361 501.539 127.478 501.48 127.655L501.01 129.066C500.892 129.242 500.775 129.301 500.657 129.242C500.363 129.125 500.01 129.066 499.599 129.066H499.246C498.306 129.125 497.483 129.478 496.777 130.124C496.072 130.83 495.66 131.653 495.543 132.712L494.484 141.061C494.484 141.12 494.484 141.179 494.426 141.238C494.367 141.296 494.308 141.296 494.19 141.296H492.78C492.603 141.296 492.544 141.179 492.544 141.002L494.249 127.302C494.308 127.126 494.367 127.008 494.543 127.008H495.954C496.072 127.008 496.13 127.008 496.189 127.067C496.248 127.126 496.248 127.184 496.248 127.243L496.013 128.948C496.013 129.007 496.013 129.066 496.072 129.066C496.072 129.066 496.13 129.066 496.189 129.007C496.66 128.302 497.189 127.772 497.835 127.361C498.482 126.949 499.187 126.773 499.952 126.773C500.422 126.949 500.951 127.067 501.362 127.302Z" fill="#041E42"/>
<path d="M509.945 128.654C509.886 128.713 509.828 128.713 509.769 128.713H506.653C506.594 128.713 506.535 128.772 506.535 128.831L505.477 137.18C505.477 137.357 505.477 137.533 505.477 137.768C505.477 138.474 505.654 138.944 506.006 139.18C506.359 139.474 506.888 139.591 507.652 139.591H508.358C508.534 139.591 508.593 139.709 508.593 139.885L508.475 141.061C508.417 141.238 508.358 141.355 508.182 141.355C507.946 141.355 507.594 141.355 507.182 141.355C506.006 141.355 505.125 141.179 504.478 140.767C503.89 140.356 503.537 139.65 503.537 138.592C503.537 138.415 503.537 138.121 503.596 137.768L504.713 128.831C504.713 128.772 504.654 128.713 504.596 128.713H502.95C502.773 128.713 502.714 128.596 502.714 128.419L502.832 127.302C502.832 127.243 502.891 127.184 502.95 127.126C503.008 127.067 503.067 127.067 503.126 127.067H504.831H504.889L504.948 127.008L505.36 123.715C505.419 123.539 505.477 123.421 505.654 123.421H507.006C507.065 123.421 507.123 123.421 507.182 123.48C507.241 123.539 507.241 123.598 507.241 123.656L506.829 126.949C506.829 127.008 506.829 127.067 506.888 127.067H510.004C510.18 127.067 510.239 127.184 510.239 127.361L510.121 128.478C510.063 128.537 510.004 128.596 509.945 128.654Z" fill="#041E42"/>
<path d="M512.767 140.532C511.885 139.885 511.474 139.062 511.474 138.121C511.474 137.945 511.474 137.827 511.474 137.768V137.416C511.532 137.239 511.591 137.122 511.768 137.122H513.12C513.178 137.122 513.237 137.122 513.296 137.18C513.355 137.239 513.355 137.298 513.355 137.357V137.592C513.296 138.004 513.414 138.356 513.649 138.709C513.884 139.062 514.237 139.356 514.707 139.591C515.177 139.826 515.765 139.944 516.353 139.944C517.352 139.944 518.175 139.709 518.822 139.18C519.469 138.709 519.821 138.062 519.821 137.357C519.821 136.945 519.704 136.592 519.41 136.357C519.116 136.122 518.822 135.887 518.469 135.71C518.117 135.534 517.529 135.358 516.706 135.064C515.765 134.77 515.001 134.476 514.413 134.182C513.825 133.888 513.296 133.535 512.943 133.064C512.532 132.594 512.355 132.006 512.355 131.3C512.355 131.124 512.355 130.948 512.355 130.83C512.532 129.654 513.061 128.654 514.119 127.949C515.118 127.243 516.353 126.89 517.881 126.89C519.292 126.89 520.468 127.243 521.291 127.89C522.114 128.537 522.526 129.36 522.526 130.36C522.526 130.536 522.526 130.712 522.526 130.771V130.83C522.467 131.006 522.408 131.124 522.232 131.124H520.938C520.821 131.124 520.762 131.124 520.703 131.065C520.644 131.006 520.644 130.948 520.644 130.889V130.83C520.703 130.183 520.468 129.654 519.939 129.242C519.41 128.831 518.646 128.596 517.646 128.596C516.647 128.596 515.883 128.831 515.236 129.242C514.589 129.654 514.295 130.242 514.295 131.006C514.295 131.594 514.531 132.006 515.001 132.3C515.471 132.594 516.235 132.947 517.293 133.241C518.293 133.535 519.057 133.829 519.645 134.064C520.233 134.299 520.762 134.711 521.173 135.181C521.585 135.652 521.82 136.24 521.82 137.004C521.82 137.239 521.82 137.357 521.82 137.474C521.644 138.65 521.056 139.65 520.056 140.414C519.057 141.179 517.764 141.532 516.235 141.532C514.766 141.532 513.59 141.179 512.767 140.532Z" fill="#041E42"/>
</g>
<defs>
<linearGradient id="paint0_linear_1348_5168" x1="166.296" y1="17.51" x2="288.572" y2="17.51" gradientUnits="userSpaceOnUse">
<stop stop-color="#FFFF00"/>
<stop offset="1" stop-color="#00FFFF"/>
</linearGradient>
<linearGradient id="paint1_linear_1348_5168" x1="116.327" y1="58.0997" x2="266.821" y2="58.0997" gradientUnits="userSpaceOnUse">
<stop stop-color="#FFFF00"/>
<stop offset="1" stop-color="#00FFFF"/>
</linearGradient>
<linearGradient id="paint2_linear_1348_5168" x1="192.75" y1="98.6717" x2="260.943" y2="98.6717" gradientUnits="userSpaceOnUse">
<stop stop-color="#FFFF00"/>
<stop offset="1" stop-color="#00FFFF"/>
</linearGradient>
<clipPath id="clip0_1348_5168">
<rect width="563" height="147" fill="white" transform="translate(0.5)"/>
</clipPath>
</defs>
</svg>
